<mxfile host="app.diagrams.net" agent="Mozilla/5.0 (X11; Linux x86_64) AppleWebKit/537.36 (KHTML, like Gecko) Chrome/134.0.0.0 Safari/537.36 OPR/119.0.0.0" version="27.1.4">
  <diagram name="Page-1" id="dSXhLiUKM2LfeHZQxu41">
    <mxGraphModel dx="2209" dy="752" grid="1" gridSize="10" guides="1" tooltips="1" connect="1" arrows="1" fold="1" page="1" pageScale="1" pageWidth="827" pageHeight="1169" math="0" shadow="0">
      <root>
        <mxCell id="0" />
        <mxCell id="1" parent="0" />
        <mxCell id="WGfG3eNtXVmUuOnjyOWt-20" value="" style="rounded=0;whiteSpace=wrap;html=1;" vertex="1" parent="1">
          <mxGeometry x="-280" y="830" width="1380" height="640" as="geometry" />
        </mxCell>
        <mxCell id="WGfG3eNtXVmUuOnjyOWt-1" value="" style="rounded=0;whiteSpace=wrap;html=1;fillColor=#9999FF;" vertex="1" parent="1">
          <mxGeometry x="-280" y="110" width="1380" height="700" as="geometry" />
        </mxCell>
        <mxCell id="WGfG3eNtXVmUuOnjyOWt-18" value="" style="rounded=0;whiteSpace=wrap;html=1;" vertex="1" parent="1">
          <mxGeometry x="790" y="610" width="210" height="120" as="geometry" />
        </mxCell>
        <mxCell id="WGfG3eNtXVmUuOnjyOWt-19" value="" style="rounded=0;whiteSpace=wrap;html=1;" vertex="1" parent="1">
          <mxGeometry x="-140" y="602" width="210" height="120" as="geometry" />
        </mxCell>
        <mxCell id="89dMwhakB2q7gFZ_QAYJ-8" value="" style="rounded=0;whiteSpace=wrap;html=1;fillColor=#FF9999;" parent="1" vertex="1">
          <mxGeometry x="50" y="360" width="750" height="192" as="geometry" />
        </mxCell>
        <mxCell id="89dMwhakB2q7gFZ_QAYJ-1" value="" style="image;aspect=fixed;perimeter=ellipsePerimeter;html=1;align=center;shadow=0;dashed=0;spacingTop=3;image=img/lib/active_directory/internet_cloud.svg;" parent="1" vertex="1">
          <mxGeometry x="350" y="30" width="111.11" height="70" as="geometry" />
        </mxCell>
        <mxCell id="89dMwhakB2q7gFZ_QAYJ-2" value="" style="shape=mxgraph.cisco.wireless.satellite_dish;sketch=0;html=1;pointerEvents=1;dashed=0;fillColor=#036897;strokeColor=#ffffff;strokeWidth=2;verticalLabelPosition=bottom;verticalAlign=top;align=center;outlineConnect=0;" parent="1" vertex="1">
          <mxGeometry x="260" y="248" width="99" height="74" as="geometry" />
        </mxCell>
        <mxCell id="WGfG3eNtXVmUuOnjyOWt-4" value="" style="shape=mxgraph.cisco.security.firewall;sketch=0;html=1;pointerEvents=1;dashed=0;fillColor=#036897;strokeColor=#ffffff;strokeWidth=2;verticalLabelPosition=bottom;verticalAlign=top;align=center;outlineConnect=0;" vertex="1" parent="1">
          <mxGeometry x="295" y="410" width="29" height="67" as="geometry" />
        </mxCell>
        <mxCell id="WGfG3eNtXVmUuOnjyOWt-5" value="" style="shape=mxgraph.cisco.security.firewall;sketch=0;html=1;pointerEvents=1;dashed=0;fillColor=#036897;strokeColor=#ffffff;strokeWidth=2;verticalLabelPosition=bottom;verticalAlign=top;align=center;outlineConnect=0;" vertex="1" parent="1">
          <mxGeometry x="546.56" y="410" width="29" height="67" as="geometry" />
        </mxCell>
        <mxCell id="WGfG3eNtXVmUuOnjyOWt-6" value="" style="shape=mxgraph.cisco.modems_and_phones.cable_modem;sketch=0;html=1;pointerEvents=1;dashed=0;fillColor=#036897;strokeColor=#ffffff;strokeWidth=2;verticalLabelPosition=bottom;verticalAlign=top;align=center;outlineConnect=0;" vertex="1" parent="1">
          <mxGeometry x="510" y="267.5" width="74" height="35" as="geometry" />
        </mxCell>
        <mxCell id="WGfG3eNtXVmUuOnjyOWt-8" value="" style="shape=mxgraph.cisco.switches.layer_3_switch;sketch=0;html=1;pointerEvents=1;dashed=0;fillColor=#036897;strokeColor=#ffffff;strokeWidth=2;verticalLabelPosition=bottom;verticalAlign=top;align=center;outlineConnect=0;" vertex="1" parent="1">
          <mxGeometry x="277.5" y="630" width="64" height="64" as="geometry" />
        </mxCell>
        <mxCell id="WGfG3eNtXVmUuOnjyOWt-9" value="" style="shape=mxgraph.cisco.switches.layer_3_switch;sketch=0;html=1;pointerEvents=1;dashed=0;fillColor=#036897;strokeColor=#ffffff;strokeWidth=2;verticalLabelPosition=bottom;verticalAlign=top;align=center;outlineConnect=0;" vertex="1" parent="1">
          <mxGeometry x="529.06" y="630" width="64" height="64" as="geometry" />
        </mxCell>
        <mxCell id="WGfG3eNtXVmUuOnjyOWt-10" value="" style="shape=mxgraph.cisco.switches.atm_fast_gigabit_etherswitch;sketch=0;html=1;pointerEvents=1;dashed=0;fillColor=#036897;strokeColor=#ffffff;strokeWidth=2;verticalLabelPosition=bottom;verticalAlign=top;align=center;outlineConnect=0;" vertex="1" parent="1">
          <mxGeometry x="40" y="630" width="64" height="64" as="geometry" />
        </mxCell>
        <mxCell id="WGfG3eNtXVmUuOnjyOWt-11" value="" style="shape=mxgraph.cisco.switches.atm_fast_gigabit_etherswitch;sketch=0;html=1;pointerEvents=1;dashed=0;fillColor=#036897;strokeColor=#ffffff;strokeWidth=2;verticalLabelPosition=bottom;verticalAlign=top;align=center;outlineConnect=0;" vertex="1" parent="1">
          <mxGeometry x="770" y="630" width="64" height="64" as="geometry" />
        </mxCell>
        <mxCell id="WGfG3eNtXVmUuOnjyOWt-12" value="" style="shape=mxgraph.cisco.switches.atm_fast_gigabit_etherswitch;sketch=0;html=1;pointerEvents=1;dashed=0;fillColor=#036897;strokeColor=#ffffff;strokeWidth=2;verticalLabelPosition=bottom;verticalAlign=top;align=center;outlineConnect=0;" vertex="1" parent="1">
          <mxGeometry x="520" y="870" width="64" height="64" as="geometry" />
        </mxCell>
        <mxCell id="WGfG3eNtXVmUuOnjyOWt-13" value="" style="shape=mxgraph.cisco.switches.atm_fast_gigabit_etherswitch;sketch=0;html=1;pointerEvents=1;dashed=0;fillColor=#036897;strokeColor=#ffffff;strokeWidth=2;verticalLabelPosition=bottom;verticalAlign=top;align=center;outlineConnect=0;" vertex="1" parent="1">
          <mxGeometry x="295" y="870" width="64" height="64" as="geometry" />
        </mxCell>
        <mxCell id="WGfG3eNtXVmUuOnjyOWt-14" value="" style="shape=mxgraph.cisco.switches.atm_fast_gigabit_etherswitch;sketch=0;html=1;pointerEvents=1;dashed=0;fillColor=#036897;strokeColor=#ffffff;strokeWidth=2;verticalLabelPosition=bottom;verticalAlign=top;align=center;outlineConnect=0;" vertex="1" parent="1">
          <mxGeometry x="706" y="1010" width="64" height="64" as="geometry" />
        </mxCell>
        <mxCell id="WGfG3eNtXVmUuOnjyOWt-15" value="" style="shape=mxgraph.cisco.switches.atm_fast_gigabit_etherswitch;sketch=0;html=1;pointerEvents=1;dashed=0;fillColor=#036897;strokeColor=#ffffff;strokeWidth=2;verticalLabelPosition=bottom;verticalAlign=top;align=center;outlineConnect=0;" vertex="1" parent="1">
          <mxGeometry x="130" y="1010" width="64" height="64" as="geometry" />
        </mxCell>
        <mxCell id="WGfG3eNtXVmUuOnjyOWt-16" value="" style="shape=mxgraph.cisco.switches.atm_fast_gigabit_etherswitch;sketch=0;html=1;pointerEvents=1;dashed=0;fillColor=#036897;strokeColor=#ffffff;strokeWidth=2;verticalLabelPosition=bottom;verticalAlign=top;align=center;outlineConnect=0;" vertex="1" parent="1">
          <mxGeometry x="505.5" y="1169" width="64" height="64" as="geometry" />
        </mxCell>
        <mxCell id="WGfG3eNtXVmUuOnjyOWt-17" value="" style="shape=mxgraph.cisco.switches.atm_fast_gigabit_etherswitch;sketch=0;html=1;pointerEvents=1;dashed=0;fillColor=#036897;strokeColor=#ffffff;strokeWidth=2;verticalLabelPosition=bottom;verticalAlign=top;align=center;outlineConnect=0;" vertex="1" parent="1">
          <mxGeometry x="280.5" y="1169" width="64" height="64" as="geometry" />
        </mxCell>
      </root>
    </mxGraphModel>
  </diagram>
</mxfile>
